<svg xmlns="http://www.w3.org/2000/svg" x="0px" y="0px" width="40" height="40" viewBox="0 0 50 50" fill="#ffffff" > <path d="M 25 0.91992188 L 15.630859 4.6601562 L 4 9.3007812 L 4 17 C 4 23.22 6.1299219 28.729609 8.4199219 32.849609 C 8.7687182 33.467477 9.1083033 34.055133 9.4570312 34.603516 C 6.7935469 37.089818 5.3867188 38.386719 5.3867188 38.386719 L 7 40 L 17 32 C 23 27 28.735 25.253 30 25 C 33.035436 24.392913 38.789767 24.171847 43.023438 24.078125 C 42.854235 24.742415 42.647902 25.415961 42.419922 26.080078 C 40.559922 31.500078 37.070078 36.969922 32.580078 41.419922 C 29.910078 44.069922 27.05 46.149453 25 46.939453 C 22.15 45.839453 17.609219 42.259219 13.699219 37.199219 L 12.140625 38.449219 C 16.470625 44.049219 21.509687 47.889219 24.679688 48.949219 L 25 49.050781 L 25.320312 48.949219 C 27.690312 48.159219 30.930234 45.879844 33.990234 42.839844 C 36.960234 39.899844 42.050781 33.989297 44.550781 26.029297 C 44.760402 25.380472 44.949376 24.711938 45.119141 24.033203 C 46.778476 24.009202 48 24 48 24 L 49 22 C 49 22 39.134516 21.943625 35.228516 21.640625 C 34.417516 21.579625 33.61225 21.029438 33.28125 20.773438 C 32.63425 20.267437 32.232375 19.484578 32.109375 19.267578 C 31.683375 18.533578 30.354797 15.489125 31.341797 14.953125 C 32.035797 14.572125 33.805547 14.459359 34.935547 14.193359 C 35.934547 13.887359 36.21325 11.721844 35.78125 11.714844 C 35.37725 11.701844 33.459531 11.402609 31.769531 10.974609 C 30.041531 10.534609 27.754281 10.148922 26.238281 10.044922 C 24.504281 9.9239219 22.666141 10.073984 20.244141 10.208984 C 19.510141 10.248984 18.407 10.246125 17.5 10.078125 C 18.443 10.902125 20.018094 10.835781 21.621094 10.800781 C 23.201094 10.767781 25.659953 10.755969 26.251953 11.042969 C 27.038953 11.420969 27.290937 11.911781 26.585938 12.300781 C 26.122938 12.501781 25.660234 12.626234 24.990234 12.740234 C 23.882234 12.928234 23.601594 12.869328 24.058594 13.361328 C 24.791594 14.149328 25.474609 14.4145 26.724609 14.1875 C 27.061609 14.1285 27.552531 13.962813 28.019531 14.007812 C 28.319531 14.035813 28.487406 14.405047 28.691406 15.248047 C 28.873406 15.990047 28.822094 17.778547 27.496094 18.810547 C 18.999094 24.999547 15 25 12 25 C 12 25 10.998859 25.015844 11.005859 25.089844 C 11.027859 25.307844 12.779734 25.966953 14.052734 26.251953 C 15.484734 26.526953 16.793203 27.662437 15.408203 29.023438 C 13.07269 31.224132 12.334618 31.906532 10.943359 33.208984 C 10.595717 32.652173 10.257584 32.065438 9.9296875 31.439453 C 7.8596875 27.599453 6 22.59 6 17 L 6 10.660156 L 12.269531 8.1601562 L 14.119141 7.4199219 L 16.369141 6.5195312 L 25 3.0800781 L 44 10.660156 L 44 17 C 44 17.97 43.940078 18.939688 43.830078 19.929688 C 44.540078 19.949688 45.210078 19.960938 45.830078 19.960938 C 45.950078 18.960938 46 17.98 46 17 L 46 9.3007812 L 25 0.91992188 z"></path> </svg>

